<?xml version="1.0" encoding="utf-8"?>
<svg version="1.1" xmlns="http://www.w3.org/2000/svg" xmlns:xlink="http://www.w3.org/1999/xlink" width="512pt" height="512pt" viewBox="-44 -44 600 600" xml:space="preserve">
  <!-- Outer Dark Circular Backdrop (512x512 centered at 256,256) -->
  <path fill="#070E20" d="M512,256c0,141.387-114.613,256-256,256S0,397.387,0,256C0,114.613,114.613,0,256,0S512,114.613,512,256z"/>
  
  <!-- Backdrop Secondary Crescent / Ocean Glow Wave (2.5D Shading Arc) -->
  <path fill="#0A255C" d="M512,256c0,108.2-67.1,200.7-162.8,238.4c84.2-61.6,128.8-164.2,102.5-267.3C425.4,122.9,321,46.2,204.8,50.1C117.7,53,42.5,115.4,12.8,197.8C4.5,216.5,0.7,236,0,256c0,141.4,114.6,256,256,256C397.4,512,512,397.4,512,256z"/>
  <path fill="#0055B8" opacity="0.6" d="M465.4,404C437.1,443.9,397.6,475.3,351.6,493.8c68.3-48.5,103.4-131.7,85.2-214.6C418.5,196.3,338.4,136.2,246,140c-68.8,2.8-128.4,45.4-154.2,109.1C72,200,105,150,155,115c50-35,110-48,170-36c100,20,165,110,155,210C477,330,473,370,465.4,404z"/>
  
  <!-- Flow Wave Rings (Concentrated Ambient Ripple Lines) -->
  <path fill="#0088EB" opacity="0.4" d="M256,54C144.4,54,54,144.4,54,256s90.4,202,202,202s202-90.4,202-202S367.6,54,256,54z M256,432c-97.2,0-176-78.8-176-176S158.8,80,256,80s176,78.8,176,176S353.2,432,256,432z"/>
  <path fill="#00C8FF" opacity="0.25" d="M256,92c-90.6,0-164,73.4-164,164s73.4,164,164,164s164-73.4,164-164S346.6,92,256,92z M256,396c-77.3,0-140-62.7-140-140s62.7-140,140-140s140,62.7,140,140S333.3,396,256,396z"/>

  <!-- Fluid Flow Base Shadow (2.5D Drop Shadow under central droplet) -->
  <ellipse cx="256" cy="410" rx="110" ry="24" fill="#003577" opacity="0.8"/>
  <ellipse cx="256" cy="410" rx="75" ry="15" fill="#001F4C" opacity="0.9"/>

  <!-- Main Water Droplet — Outer Glow Shield / Base Dark Layer -->
  <path fill="#004D99" d="M256,90c-3.5,0-7.2,1.8-9.8,5.4c-22.4,31.2-114.2,162.6-114.2,232.6c0,68.5,55.5,124,124,124s124-55.5,124-124c0-70-91.8-201.4-114.2-232.6C263.2,91.8,259.5,90,256,90z"/>

  <!-- Main Water Droplet — Vivid Cyan Body Layer -->
  <path fill="#00A3FF" d="M256,108c-2.8,0-5.8,1.4-7.8,4.3C229.8,138,144,244.8,144,302c0,61.9,50.1,112,112,112s112-50.1,112-112c0-57.2-85.8-164-104.2-189.7C261.8,109.4,258.8,108,256,108z"/>

  <!-- Main Water Droplet — Luminous Aqua Gradient Highlights (Right Side 2.5D Lighting) -->
  <path fill="#00E5FF" d="M256,108c1.5,0,3.1,0.5,4.4,1.6c18.4,25.7,104.2,132.5,104.2,189.7c0,61.9-50.1,112-112,112V108z"/>

  <!-- Main Water Droplet — Inner Core Electric Glow -->
  <path fill="#70F3FF" d="M256,145c-1.8,0-3.8,1-5.1,3c-12.7,19.2-68.9,104-68.9,146c0,40.9,33.1,74,74,74s74-33.1,74-74c0-42-56.2-126.8-68.9-146C259.8,146,257.8,145,256,145z"/>

  <!-- Main Water Droplet — Soft White Core Light Highlight -->
  <path fill="#E0FDFF" d="M256,170c-1.2,0-2.5,0.7-3.4,2c-8.5,12.8-45.6,69.5-45.6,97.6c0,27.3,22.1,49.4,49,49.4s49-22.1,49-49.4c0-28.1-37.1-84.8-45.6-97.6C258.5,170.7,257.2,170,256,170z"/>

  <!-- Droplet Glossy Reflections (Left Curving Highlight Ribbons) -->
  <path fill="#FFFFFF" opacity="0.75" d="M200,240c-12,20-18,42-18,65c0,18,3.5,35,10,50c-6-13-9-27-9-42c0-23,7-47,19-68c6-10,14-20,22-29C215,225,207,232,200,240z"/>
  <circle cx="215" cy="215" r="9" fill="#FFFFFF" opacity="0.8"/>
  <circle cx="202" cy="235" r="5" fill="#FFFFFF" opacity="0.6"/>

  <!-- Dynamic Swirling Flow Ribbons (S-Curves around central droplet) -->
  <path fill="none" stroke="#00F0FF" stroke-width="12" stroke-linecap="round" opacity="0.85" d="M120,240 C140,160 210,130 256,130 C320,130 380,180 390,260 C400,340 330,420 256,420 C200,420 150,380 140,320"/>
  <path fill="none" stroke="#FFFFFF" stroke-width="5" stroke-linecap="round" opacity="0.9" d="M128,235 C146,165 212,138 256,138 C315,138 372,185 382,260 C391,332 328,410 256,410"/>

  <!-- Satellite Orbiting Water Droplets -->
  <!-- Top Right Satellite Droplet -->
  <g transform="translate(375, 145) rotate(25) scale(0.35)">
    <path fill="#00A3FF" d="M50,0 C50,0 0,60 0,85 C0,112.6 22.4,135 50,135 C77.6,135 100,112.6 100,85 C100,60 50,0 50,0 Z"/>
    <path fill="#70F3FF" d="M50,20 C50,20 20,65 20,85 C20,101.6 33.4,115 50,115 C66.6,115 80,101.6 80,85 C80,65 50,20 50,20 Z"/>
    <circle cx="35" cy="70" r="7" fill="#FFFFFF" opacity="0.8"/>
  </g>

  <!-- Top Left Satellite Droplet -->
  <g transform="translate(115, 155) rotate(-30) scale(0.28)">
    <path fill="#00A3FF" d="M50,0 C50,0 0,60 0,85 C0,112.6 22.4,135 50,135 C77.6,135 100,112.6 100,85 C100,60 50,0 50,0 Z"/>
    <path fill="#70F3FF" d="M50,20 C50,20 20,65 20,85 C20,101.6 33.4,115 50,115 C66.6,115 80,101.6 80,85 C80,65 50,20 50,20 Z"/>
    <circle cx="35" cy="70" r="7" fill="#FFFFFF" opacity="0.8"/>
  </g>

  <!-- Bottom Left Small Droplet -->
  <g transform="translate(130, 365) rotate(-60) scale(0.22)">
    <path fill="#00E5FF" d="M50,0 C50,0 0,60 0,85 C0,112.6 22.4,135 50,135 C77.6,135 100,112.6 100,85 C100,60 50,0 50,0 Z"/>
    <circle cx="35" cy="70" r="7" fill="#FFFFFF" opacity="0.9"/>
  </g>

  <!-- Bottom Right Medium Droplet -->
  <g transform="translate(370, 350) rotate(45) scale(0.3)">
    <path fill="#00A3FF" d="M50,0 C50,0 0,60 0,85 C0,112.6 22.4,135 50,135 C77.6,135 100,112.6 100,85 C100,60 50,0 50,0 Z"/>
    <path fill="#70F3FF" d="M50,20 C50,20 20,65 20,85 C20,101.6 33.4,115 50,115 C66.6,115 80,101.6 80,85 C80,65 50,20 50,20 Z"/>
    <circle cx="35" cy="70" r="7" fill="#FFFFFF" opacity="0.8"/>
  </g>

  <!-- 4-Point Magic Sparkles (Matching Magic Wand & XP style) -->
  <!-- Top Left Sparkle -->
  <path fill="#E0FDFF" d="M150,115 C150,127 140,137 128,137 C140,137 150,147 150,159 C150,147 160,137 172,137 C160,137 150,127 150,115 Z"/>
  
  <!-- Top Right Large Sparkle -->
  <path fill="#FFFFFF" d="M410,190 C410,206 394,222 378,222 C394,222 410,238 410,254 C410,238 426,222 442,222 C426,222 410,206 410,190 Z"/>
  
  <!-- Bottom Left Sparkle -->
  <path fill="#70F3FF" d="M105,295 C105,304 97,312 88,312 C97,312 105,320 105,329 C105,320 113,312 122,312 C113,312 105,304 105,295 Z"/>

  <!-- Bottom Right Sparkle -->
  <path fill="#E0FDFF" d="M415,310 C415,321 405,330 394,330 C405,330 415,339 415,350 C415,339 425,330 436,330 C425,330 415,321 415,310 Z"/>

  <!-- Tiny Accent Circles (Fairy Dust Particles) -->
  <circle cx="165" cy="180" r="3.5" fill="#FFFFFF" opacity="0.9"/>
  <circle cx="370" cy="120" r="4.5" fill="#70F3FF" opacity="0.8"/>
  <circle cx="430" cy="175" r="3" fill="#FFFFFF" opacity="0.7"/>
  <circle cx="110" cy="245" r="4" fill="#00E5FF" opacity="0.8"/>
  <circle cx="345" cy="415" r="3.5" fill="#70F3FF" opacity="0.9"/>
  <circle cx="170" cy="390" r="4" fill="#FFFFFF" opacity="0.85"/>
</svg>
